<svg version="1.1" xmlns="http://www.w3.org/2000/svg" xmlns:xlink="http://www.w3.org/1999/xlink" width="82" height="35"><defs><clipPath id="ukXwicbsqoWt"><path fill="none" stroke="none" d=" M 0 0 L 82 0 L 82 35 L 0 35 L 0 0 Z"/></clipPath></defs><g transform="scale(1,1)" clip-path="url(#ukXwicbsqoWt)"><g transform="translate(-68,-249)"><g transform="scale(21,21)"><g transform="translate(3.5714285714285716,12.979714285714287)"><path fill="rgb(0,0,0)" stroke="none" paint-order="stroke fill markers" d=" M 0.466 -0.21 L 0.656 -0.664 Q 0.664 -0.682 0.672 -0.684 L 0.673 -0.684 L 0.673 -0.684 Q 0.678 -0.685 0.6930000000000001 -0.685 L 0.886 -0.685 Q 0.913 -0.685 0.918 -0.675 L 0.918 -0.674 Q 0.919 -0.671 0.919 -0.667 Q 0.919 -0.652 0.9 -0.65 Q 0.834 -0.636 0.8320000000000001 -0.579 L 0.8320000000000001 -0.106 Q 0.8320000000000001 -0.062 0.863 -0.046 L 0.864 -0.046 Q 0.882 -0.037 0.909 -0.035 Q 0.922 -0.033 0.925 -0.018000000000000002 Q 0.916 -0.001 0.892 0 L 0.625 0 Q 0.595 0 0.592 -0.012 Q 0.591 -0.015 0.591 -0.018000000000000002 Q 0.591 -0.033 0.61 -0.035 Q 0.676 -0.049 0.678 -0.106 L 0.678 -0.604 L 0.677 -0.605 L 0.432 -0.02 Q 0.424 -0.002 0.41200000000000003 0 Q 0.4 0 0.391 -0.021 L 0.147 -0.605 L 0.146 -0.604 L 0.146 -0.106 Q 0.146 -0.062 0.177 -0.046 L 0.178 -0.046 Q 0.196 -0.037 0.223 -0.035 Q 0.23600000000000002 -0.033 0.23900000000000002 -0.018000000000000002 Q 0.231 -0.001 0.20600000000000002 0 L 0.051000000000000004 0 Q 0.021 0 0.018000000000000002 -0.012 Q 0.017 -0.015 0.017 -0.018000000000000002 Q 0.017 -0.033 0.036000000000000004 -0.035 Q 0.10200000000000001 -0.049 0.10400000000000001 -0.106 L 0.10400000000000001 -0.64 Q 0.076 -0.65 0.043000000000000003 -0.65 Q 0.02 -0.65 0.02 -0.667 Q 0.028 -0.684 0.053 -0.685 L 0.23900000000000002 -0.685 Q 0.264 -0.685 0.269 -0.678 Q 0.271 -0.675 0.275 -0.665 L 0.466 -0.21 M 0.436 -0.192 L 0.243 -0.65 L 0.156 -0.65 Q 0.17200000000000001 -0.636 0.183 -0.608 L 0.41100000000000003 -0.064 L 0.41300000000000003 -0.064 L 0.457 -0.17 Q 0.445 -0.17400000000000002 0.44 -0.184 Q 0.438 -0.187 0.436 -0.192 M 0.134 -0.035 L 0.134 -0.035 L 0.125 -0.046 Q 0.124 -0.045 0.123 -0.043000000000000003 Q 0.121 -0.041 0.117 -0.035 L 0.134 -0.035 M 0.713 -0.65 L 0.713 -0.10400000000000001 Q 0.713 -0.06 0.6910000000000001 -0.035 L 0.8200000000000001 -0.035 Q 0.797 -0.06 0.797 -0.10400000000000001 L 0.797 -0.581 Q 0.797 -0.625 0.8190000000000001 -0.65 L 0.713 -0.65 Z"/></g><g transform="translate(4.515428571428572,12.979714285714287)"><path fill="rgb(0,0,0)" stroke="none" paint-order="stroke fill markers" d=" M 0.399 -0.289 L 0.399 0 L 0.324 0 L 0.324 -0.036000000000000004 Q 0.263 0.011 0.158 0.011 Q 0.1 0.011 0.07200000000000001 -0.029500000000000002 Q 0.044 -0.07 0.044 -0.113 Q 0.044 -0.176 0.1225 -0.2095 Q 0.201 -0.243 0.321 -0.245 L 0.321 -0.28800000000000003 Q 0.321 -0.341 0.296 -0.3715 Q 0.271 -0.402 0.234 -0.402 Q 0.153 -0.402 0.083 -0.352 L 0.077 -0.418 Q 0.152 -0.461 0.234 -0.461 Q 0.304 -0.461 0.35150000000000003 -0.41250000000000003 Q 0.399 -0.364 0.399 -0.289 M 0.321 -0.132 L 0.321 -0.194 Q 0.116 -0.184 0.116 -0.115 Q 0.116 -0.085 0.14350000000000002 -0.0675 Q 0.171 -0.05 0.209 -0.05 Q 0.256 -0.05 0.28700000000000003 -0.069 Q 0.321 -0.088 0.321 -0.132 Z"/></g><g transform="translate(4.996428571428572,12.979714285714287)"><path fill="rgb(0,0,0)" stroke="none" paint-order="stroke fill markers" d=" M 0.17500000000000002 -0.386 L 0.17500000000000002 -0.136 Q 0.17500000000000002 -0.053 0.226 -0.053 Q 0.275 -0.053 0.316 -0.08600000000000001 L 0.332 -0.027 Q 0.259 0.011 0.186 0.011 Q 0.10300000000000001 0.011 0.10300000000000001 -0.11900000000000001 L 0.10300000000000001 -0.386 L 0.019 -0.386 L 0.019 -0.444 L 0.106 -0.444 L 0.106 -0.5710000000000001 L 0.17500000000000002 -0.5710000000000001 L 0.17500000000000002 -0.444 L 0.316 -0.444 L 0.316 -0.386 L 0.17500000000000002 -0.386 Z"/></g><g transform="translate(5.357428571428572,12.979714285714287)"><path fill="rgb(0,0,0)" stroke="none" paint-order="stroke fill markers" d=" M 0.435 -0.298 L 0.435 0 L 0.357 0 L 0.357 -0.291 Q 0.357 -0.305 0.3565 -0.3145 Q 0.356 -0.324 0.35050000000000003 -0.3405 Q 0.34500000000000003 -0.357 0.3355 -0.3675 Q 0.326 -0.378 0.3065 -0.386 Q 0.28700000000000003 -0.394 0.26 -0.394 Q 0.20800000000000002 -0.394 0.1835 -0.34900000000000003 Q 0.159 -0.304 0.159 -0.245 L 0.159 0 L 0.081 0 L 0.081 -0.6940000000000001 L 0.156 -0.6940000000000001 L 0.156 -0.383 Q 0.212 -0.455 0.298 -0.455 Q 0.435 -0.455 0.435 -0.298 Z"/></g><g transform="translate(5.874428571428572,12.979714285714287)"><path fill="rgb(0,0,0)" stroke="none" paint-order="stroke fill markers" d=" M 0.41400000000000003 -0.219 L 0.105 -0.219 Q 0.107 -0.146 0.1495 -0.098 Q 0.192 -0.05 0.252 -0.05 Q 0.336 -0.05 0.404 -0.106 L 0.41000000000000003 -0.041 Q 0.338 0.011 0.251 0.011 Q 0.161 0.011 0.098 -0.058 Q 0.035 -0.127 0.035 -0.226 Q 0.035 -0.323 0.094 -0.392 Q 0.153 -0.461 0.23600000000000002 -0.461 Q 0.326 -0.461 0.374 -0.388 Q 0.41400000000000003 -0.326 0.41400000000000003 -0.219 M 0.11 -0.274 L 0.357 -0.274 Q 0.34800000000000003 -0.338 0.314 -0.369 Q 0.28 -0.4 0.23600000000000002 -0.4 Q 0.193 -0.4 0.1575 -0.365 Q 0.122 -0.33 0.11 -0.274 Z"/></g><g transform="translate(6.318428571428572,12.979714285714287)"><path fill="rgb(0,0,0)" stroke="none" paint-order="stroke fill markers" d=" M 0.157 -0.214 L 0.157 0 L 0.082 0 L 0.082 -0.45 L 0.152 -0.45 L 0.152 -0.359 Q 0.216 -0.454 0.327 -0.455 L 0.327 -0.388 Q 0.253 -0.386 0.20500000000000002 -0.3375 Q 0.157 -0.289 0.157 -0.214 Z"/></g></g></g></g></svg>