<svg version="1.1" xmlns="http://www.w3.org/2000/svg" xmlns:xlink="http://www.w3.org/1999/xlink" width="36" height="35"><defs><clipPath id="xepIoeBzqRHd"><path fill="none" stroke="none" d=" M 0 0 L 36 0 L 36 35 L 0 35 L 0 0 Z"/></clipPath></defs><g transform="scale(1,1)" clip-path="url(#xepIoeBzqRHd)"><g transform="translate(-68,-249)"><path fill="#000000" stroke="none" paint-order="stroke fill markers" fill-rule="evenodd" d=" M 450 115 L 472 115 C 473.1045694996616 115 474 115.8954305003384 474 117 L 474 139 C 474 140.10456949966158 473.1045694996616 141 472 141 L 450 141 C 448.8954305003384 141 448 140.10456949966158 448 139 L 448 117 C 448 115.8954305003384 448.8954305003384 115 450 115 Z"/><path fill="none" stroke="rgb(110,109,115)" paint-order="fill stroke markers" d=" M 451 116 L 471 116 C 472.1045694996616 116 473 116.8954305003384 473 118 L 473 138 C 473 139.10456949966158 472.1045694996616 140 471 140 L 451 140 C 449.8954305003384 140 449 139.10456949966158 449 138 L 449 118 C 449 116.8954305003384 449.8954305003384 116 451 116 Z" stroke-opacity="1" stroke-linecap="square" stroke-miterlimit="10" stroke-width="2"/><text fill="rgb(0,0,0)" stroke="none" font-family="geogebra-sans-serif, sans-serif" font-size="18px" font-style="normal" font-weight="normal" text-decoration="normal" x="483" y="135" text-anchor="start" dominant-baseline="alphabetic" fill-opacity="1">Serif</text><g transform="scale(21,21)"><g transform="translate(3.5714285714285716,12.974714285714287)"><path fill="rgb(0,0,0)" stroke="none" paint-order="stroke fill markers" d=" M 0.466 -0.21 L 0.656 -0.664 Q 0.664 -0.682 0.672 -0.684 L 0.673 -0.684 L 0.673 -0.684 Q 0.678 -0.685 0.6930000000000001 -0.685 L 0.886 -0.685 Q 0.913 -0.685 0.918 -0.675 L 0.918 -0.674 Q 0.919 -0.671 0.919 -0.667 Q 0.919 -0.652 0.9 -0.65 Q 0.834 -0.636 0.8320000000000001 -0.579 L 0.8320000000000001 -0.106 Q 0.8320000000000001 -0.062 0.863 -0.046 L 0.864 -0.046 Q 0.882 -0.037 0.909 -0.035 Q 0.922 -0.033 0.925 -0.018000000000000002 Q 0.916 -0.001 0.892 0 L 0.625 0 Q 0.595 0 0.592 -0.012 Q 0.591 -0.015 0.591 -0.018000000000000002 Q 0.591 -0.033 0.61 -0.035 Q 0.676 -0.049 0.678 -0.106 L 0.678 -0.604 L 0.677 -0.605 L 0.432 -0.02 Q 0.424 -0.002 0.41200000000000003 0 Q 0.4 0 0.391 -0.021 L 0.147 -0.605 L 0.146 -0.604 L 0.146 -0.106 Q 0.146 -0.062 0.177 -0.046 L 0.178 -0.046 Q 0.196 -0.037 0.223 -0.035 Q 0.23600000000000002 -0.033 0.23900000000000002 -0.018000000000000002 Q 0.231 -0.001 0.20600000000000002 0 L 0.051000000000000004 0 Q 0.021 0 0.018000000000000002 -0.012 Q 0.017 -0.015 0.017 -0.018000000000000002 Q 0.017 -0.033 0.036000000000000004 -0.035 Q 0.10200000000000001 -0.049 0.10400000000000001 -0.106 L 0.10400000000000001 -0.64 Q 0.076 -0.65 0.043000000000000003 -0.65 Q 0.02 -0.65 0.02 -0.667 Q 0.028 -0.684 0.053 -0.685 L 0.23900000000000002 -0.685 Q 0.264 -0.685 0.269 -0.678 Q 0.271 -0.675 0.275 -0.665 L 0.466 -0.21 M 0.436 -0.192 L 0.243 -0.65 L 0.156 -0.65 Q 0.17200000000000001 -0.636 0.183 -0.608 L 0.41100000000000003 -0.064 L 0.41300000000000003 -0.064 L 0.457 -0.17 Q 0.445 -0.17400000000000002 0.44 -0.184 Q 0.438 -0.187 0.436 -0.192 M 0.134 -0.035 L 0.134 -0.035 L 0.125 -0.046 Q 0.124 -0.045 0.123 -0.043000000000000003 Q 0.121 -0.041 0.117 -0.035 L 0.134 -0.035 M 0.713 -0.65 L 0.713 -0.10400000000000001 Q 0.713 -0.06 0.6910000000000001 -0.035 L 0.8200000000000001 -0.035 Q 0.797 -0.06 0.797 -0.10400000000000001 L 0.797 -0.581 Q 0.797 -0.625 0.8190000000000001 -0.65 L 0.713 -0.65 Z"/></g></g><path fill="rgb(255,255,255)" stroke="none" paint-order="stroke fill markers" fill-rule="evenodd" d=" M 37.5 109 L 149.5 109 C 151.43299662440776 109 153 110.56700337559222 153 112.5 L 153 140.5 C 153 142.43299662440776 151.43299662440776 144 149.5 144 L 37.5 144 C 35.56700337559222 144 34 142.43299662440776 34 140.5 L 34 112.5 C 34 110.56700337559222 35.56700337559222 109 37.5 109 Z" fill-opacity="1"/><path fill="none" stroke="rgb(179,179,179)" paint-order="fill stroke markers" d=" M 37.5 109 L 149.5 109 C 151.43299662440776 109 153 110.56700337559222 153 112.5 L 153 140.5 C 153 142.43299662440776 151.43299662440776 144 149.5 144 L 37.5 144 C 35.56700337559222 144 34 142.43299662440776 34 140.5 L 34 112.5 C 34 110.56700337559222 35.56700337559222 109 37.5 109 Z" stroke-opacity="1" stroke-linecap="round" stroke-linejoin="round" stroke-miterlimit="10"/><text fill="rgb(0,0,0)" stroke="none" font-family="geogebra-sans-serif, sans-serif" font-size="24px" font-style="normal" font-weight="normal" text-decoration="normal" x="44" y="136" text-anchor="start" dominant-baseline="alphabetic" fill-opacity="1">Show SVG</text><path fill="rgb(255,255,255)" stroke="none" paint-order="stroke fill markers" fill-rule="evenodd" d=" M 204.5 106 L 364.5 106 C 366.4329966244078 106 368 107.56700337559222 368 109.5 L 368 137.5 C 368 139.43299662440776 366.4329966244078 141 364.5 141 L 204.5 141 C 202.56700337559224 141 201 139.43299662440776 201 137.5 L 201 109.5 C 201 107.56700337559222 202.56700337559224 106 204.5 106 Z" fill-opacity="1"/><path fill="none" stroke="rgb(179,179,179)" paint-order="fill stroke markers" d=" M 204.5 106 L 364.5 106 C 366.4329966244078 106 368 107.56700337559222 368 109.5 L 368 137.5 C 368 139.43299662440776 366.4329966244078 141 364.5 141 L 204.5 141 C 202.56700337559224 141 201 139.43299662440776 201 137.5 L 201 109.5 C 201 107.56700337559222 202.56700337559224 106 204.5 106 Z" stroke-opacity="1" stroke-linecap="round" stroke-linejoin="round" stroke-miterlimit="10"/><text fill="rgb(0,0,0)" stroke="none" font-family="geogebra-sans-serif, sans-serif" font-size="24px" font-style="normal" font-weight="normal" text-decoration="normal" x="211" y="133" text-anchor="start" dominant-baseline="alphabetic" fill-opacity="1">Download SVG</text><path fill="rgb(255,255,255)" stroke="none" paint-order="stroke fill markers" fill-rule="evenodd" d=" M 125 30 L 409 30 C 411.20913899932316 30 413 31.790861000676827 413 34 L 413 58 C 413 60.20913899932317 411.20913899932316 62 409 62 L 125 62 C 122.79086100067683 62 121 60.20913899932317 121 58 L 121 34 C 121 31.790861000676827 122.79086100067683 30 125 30 Z" fill-opacity="1"/><path fill="none" stroke="rgb(180,179,186)" paint-order="fill stroke markers" d=" M 125 30 L 409 30 C 411.20913899932316 30 413 31.790861000676827 413 34 L 413 58 C 413 60.20913899932317 411.20913899932316 62 409 62 L 125 62 C 122.79086100067683 62 121 60.20913899932317 121 58 L 121 34 C 121 31.790861000676827 122.79086100067683 30 125 30 Z" stroke-opacity="1" stroke-linecap="round" stroke-linejoin="round" stroke-miterlimit="10"/><text fill="rgb(0,0,0)" stroke="none" font-family="geogebra-sans-serif, sans-serif" font-size="18px" font-style="normal" font-weight="normal" text-decoration="normal" x="123" y="53" text-anchor="start" dominant-baseline="alphabetic" fill-opacity="1">\mathbb{M}</text><text fill="rgb(0,0,0)" stroke="none" font-family="geogebra-sans-serif, sans-serif" font-size="18px" font-style="normal" font-weight="normal" text-decoration="normal" x="30" y="53" text-anchor="start" dominant-baseline="alphabetic" fill-opacity="1">Enter LaTeX</text></g></g></svg>