<svg version="1.1" xmlns="http://www.w3.org/2000/svg" xmlns:xlink="http://www.w3.org/1999/xlink" width="92" height="35"><defs><clipPath id="qWoibOhfXawr"><path fill="none" stroke="none" d=" M 0 0 L 92 0 L 92 35 L 0 35 L 0 0 Z"/></clipPath></defs><g transform="scale(1,1)" clip-path="url(#qWoibOhfXawr)"><g transform="translate(-59,-239)"><g transform="scale(21,21)"><g transform="translate(3.142857142857143,12.50352380952381)"><path fill="white" stroke="none" paint-order="stroke fill markers" d=" M 0.466 -0.21 L 0.656 -0.664 Q 0.664 -0.682 0.672 -0.684 L 0.673 -0.684 L 0.673 -0.684 Q 0.678 -0.685 0.6930000000000001 -0.685 L 0.886 -0.685 Q 0.913 -0.685 0.918 -0.675 L 0.918 -0.674 Q 0.919 -0.671 0.919 -0.667 Q 0.919 -0.652 0.9 -0.65 Q 0.834 -0.636 0.8320000000000001 -0.579 L 0.8320000000000001 -0.106 Q 0.8320000000000001 -0.062 0.863 -0.046 L 0.864 -0.046 Q 0.882 -0.037 0.909 -0.035 Q 0.922 -0.033 0.925 -0.018000000000000002 Q 0.916 -0.001 0.892 0 L 0.625 0 Q 0.595 0 0.592 -0.012 Q 0.591 -0.015 0.591 -0.018000000000000002 Q 0.591 -0.033 0.61 -0.035 Q 0.676 -0.049 0.678 -0.106 L 0.678 -0.604 L 0.677 -0.605 L 0.432 -0.02 Q 0.424 -0.002 0.41200000000000003 0 Q 0.4 0 0.391 -0.021 L 0.147 -0.605 L 0.146 -0.604 L 0.146 -0.106 Q 0.146 -0.062 0.177 -0.046 L 0.178 -0.046 Q 0.196 -0.037 0.223 -0.035 Q 0.23600000000000002 -0.033 0.23900000000000002 -0.018000000000000002 Q 0.231 -0.001 0.20600000000000002 0 L 0.051000000000000004 0 Q 0.021 0 0.018000000000000002 -0.012 Q 0.017 -0.015 0.017 -0.018000000000000002 Q 0.017 -0.033 0.036000000000000004 -0.035 Q 0.10200000000000001 -0.049 0.10400000000000001 -0.106 L 0.10400000000000001 -0.64 Q 0.076 -0.65 0.043000000000000003 -0.65 Q 0.02 -0.65 0.02 -0.667 Q 0.028 -0.684 0.053 -0.685 L 0.23900000000000002 -0.685 Q 0.264 -0.685 0.269 -0.678 Q 0.271 -0.675 0.275 -0.665 L 0.466 -0.21 M 0.436 -0.192 L 0.243 -0.65 L 0.156 -0.65 Q 0.17200000000000001 -0.636 0.183 -0.608 L 0.41100000000000003 -0.064 L 0.41300000000000003 -0.064 L 0.457 -0.17 Q 0.445 -0.17400000000000002 0.44 -0.184 Q 0.438 -0.187 0.436 -0.192 M 0.134 -0.035 L 0.134 -0.035 L 0.125 -0.046 Q 0.124 -0.045 0.123 -0.043000000000000003 Q 0.121 -0.041 0.117 -0.035 L 0.134 -0.035 M 0.713 -0.65 L 0.713 -0.10400000000000001 Q 0.713 -0.06 0.6910000000000001 -0.035 L 0.8200000000000001 -0.035 Q 0.797 -0.06 0.797 -0.10400000000000001 L 0.797 -0.581 Q 0.797 -0.625 0.8190000000000001 -0.65 L 0.713 -0.65 Z"/></g><g transform="translate(4.086857142857143,12.50352380952381)"><path fill="white" stroke="none" paint-order="stroke fill markers" d=" M 0.374 -0.077 Q 0.331 0.006 0.225 0.006 Q 0.195 0.006 0.165 0.0015 Q 0.135 -0.003 0.10300000000000001 -0.0145 Q 0.07100000000000001 -0.026000000000000002 0.051500000000000004 -0.05 Q 0.032 -0.074 0.032 -0.108 Q 0.032 -0.251 0.357 -0.265 L 0.357 -0.299 Q 0.357 -0.417 0.247 -0.417 Q 0.20800000000000002 -0.417 0.17500000000000002 -0.41000000000000003 Q 0.197 -0.395 0.197 -0.361 Q 0.197 -0.331 0.178 -0.3145 Q 0.159 -0.298 0.134 -0.298 Q 0.111 -0.298 0.0915 -0.3145 Q 0.07200000000000001 -0.331 0.07200000000000001 -0.361 Q 0.07200000000000001 -0.453 0.251 -0.453 Q 0.359 -0.453 0.41500000000000004 -0.41100000000000003 Q 0.47100000000000003 -0.369 0.47100000000000003 -0.299 L 0.47100000000000003 -0.084 Q 0.47100000000000003 -0.07 0.47300000000000003 -0.064 Q 0.47500000000000003 -0.058 0.489 -0.0525 Q 0.503 -0.047 0.532 -0.047 Q 0.541 -0.047 0.545 -0.046 Q 0.549 -0.045 0.5535 -0.04 Q 0.558 -0.035 0.558 -0.024 Q 0.558 -0.013000000000000001 0.5535 -0.0075 Q 0.549 -0.002 0.5435 -0.001 Q 0.538 0 0.526 0 L 0.47800000000000004 0 Q 0.441 0 0.418 -0.007 Q 0.395 -0.014 0.3865 -0.028 Q 0.378 -0.042 0.376 -0.051500000000000004 Q 0.374 -0.061 0.374 -0.077 M 0.357 -0.234 Q 0.335 -0.233 0.3155 -0.2305 Q 0.296 -0.228 0.263 -0.2195 Q 0.23 -0.211 0.20700000000000002 -0.199 Q 0.184 -0.187 0.1665 -0.1635 Q 0.149 -0.14 0.149 -0.109 Q 0.149 -0.076 0.17550000000000002 -0.053 Q 0.202 -0.03 0.24 -0.03 Q 0.253 -0.03 0.2695 -0.034 Q 0.28600000000000003 -0.038 0.3075 -0.048 Q 0.329 -0.058 0.343 -0.082 Q 0.357 -0.106 0.357 -0.139 L 0.357 -0.234 Z"/></g><g transform="translate(4.645857142857143,12.50352380952381)"><path fill="white" stroke="none" paint-order="stroke fill markers" d=" M 0.217 -0.397 L 0.217 -0.121 Q 0.217 -0.034 0.275 -0.034 Q 0.299 -0.034 0.317 -0.0565 Q 0.335 -0.079 0.335 -0.126 L 0.335 -0.177 L 0.382 -0.177 L 0.382 -0.124 Q 0.382 -0.068 0.34950000000000003 -0.031 Q 0.317 0.006 0.261 0.006 Q 0.10300000000000001 0.006 0.10300000000000001 -0.123 L 0.10300000000000001 -0.397 L 0.021 -0.397 L 0.021 -0.433 Q 0.091 -0.435 0.13 -0.4945 Q 0.169 -0.554 0.17 -0.635 L 0.217 -0.635 L 0.217 -0.444 L 0.363 -0.444 L 0.363 -0.397 L 0.217 -0.397 Z"/></g><g transform="translate(5.092857142857143,12.50352380952381)"><path fill="white" stroke="none" paint-order="stroke fill markers" d=" M 0.615 0 Q 0.531 -0.003 0.489 -0.003 Q 0.447 -0.003 0.363 0 L 0.363 -0.047 L 0.432 -0.047 L 0.432 -0.317 Q 0.432 -0.371 0.418 -0.3925 Q 0.404 -0.41400000000000003 0.377 -0.41400000000000003 Q 0.322 -0.41400000000000003 0.275 -0.3725 Q 0.228 -0.331 0.228 -0.256 L 0.228 -0.047 L 0.297 -0.047 L 0.297 0 Q 0.213 -0.003 0.171 -0.003 Q 0.129 -0.003 0.045 0 L 0.045 -0.047 L 0.114 -0.047 L 0.114 -0.6 Q 0.114 -0.628 0.10350000000000001 -0.6335000000000001 Q 0.093 -0.639 0.045 -0.639 L 0.045 -0.686 L 0.222 -0.6940000000000001 L 0.222 -0.354 L 0.223 -0.354 Q 0.279 -0.45 0.392 -0.45 Q 0.46900000000000003 -0.45 0.5075000000000001 -0.4165 Q 0.546 -0.383 0.546 -0.306 L 0.546 -0.047 L 0.615 -0.047 L 0.615 0 Z"/></g><g transform="translate(5.731857142857144,12.50352380952381)"><path fill="white" stroke="none" paint-order="stroke fill markers" d=" M 0.462 -0.218 L 0.16 -0.218 Q 0.16 -0.034 0.302 -0.034 Q 0.35100000000000003 -0.034 0.39 -0.056 Q 0.429 -0.078 0.445 -0.114 Q 0.45 -0.127 0.454 -0.131 Q 0.458 -0.135 0.47000000000000003 -0.135 Q 0.494 -0.135 0.494 -0.117 Q 0.494 -0.108 0.484 -0.09 Q 0.47400000000000003 -0.07200000000000001 0.4535 -0.0495 Q 0.433 -0.027 0.3905 -0.0105 Q 0.34800000000000003 0.006 0.293 0.006 Q 0.17400000000000002 0.006 0.10300000000000001 -0.0585 Q 0.032 -0.123 0.032 -0.225 Q 0.032 -0.323 0.0975 -0.388 Q 0.163 -0.453 0.279 -0.453 Q 0.382 -0.453 0.438 -0.399 Q 0.494 -0.343 0.494 -0.245 Q 0.494 -0.226 0.4875 -0.222 Q 0.481 -0.218 0.462 -0.218 M 0.16 -0.251 L 0.399 -0.251 Q 0.394 -0.417 0.279 -0.417 Q 0.218 -0.417 0.184 -0.365 Q 0.164 -0.334 0.16 -0.251 Z"/></g><g transform="translate(6.258857142857144,12.50352380952381)"><path fill="white" stroke="none" paint-order="stroke fill markers" d=" M 0.301 0 Q 0.265 -0.003 0.163 -0.003 Q 0.14200000000000002 -0.003 0.037 0 L 0.037 -0.047 L 0.106 -0.047 L 0.106 -0.356 Q 0.106 -0.384 0.0955 -0.3895 Q 0.085 -0.395 0.037 -0.395 L 0.037 -0.442 L 0.203 -0.45 L 0.203 -0.337 Q 0.244 -0.45 0.336 -0.45 Q 0.378 -0.45 0.41000000000000003 -0.428 Q 0.442 -0.406 0.442 -0.368 Q 0.442 -0.34 0.4235 -0.3235 Q 0.405 -0.307 0.381 -0.307 Q 0.357 -0.307 0.3385 -0.323 Q 0.32 -0.339 0.32 -0.368 Q 0.32 -0.395 0.339 -0.41400000000000003 Q 0.304 -0.41400000000000003 0.278 -0.3945 Q 0.252 -0.375 0.23900000000000002 -0.3435 Q 0.226 -0.312 0.22 -0.28200000000000003 Q 0.214 -0.252 0.214 -0.222 L 0.214 -0.047 L 0.301 -0.047 L 0.301 0 Z"/></g></g></g></g></svg>